<?xml version="1.0" encoding="utf-8"?>
<!-- Generator: Adobe Illustrator 23.0.0, SVG Export Plug-In . SVG Version: 6.00 Build 0)  -->
<svg version="1.1" xmlns="http://www.w3.org/2000/svg" xmlns:xlink="http://www.w3.org/1999/xlink" x="0px" y="0px"
	 viewBox="0 0 1920 1080" enable-background="new 0 0 1920 1080" xml:space="preserve">
<g id="BG">
	<g>
		
			<radialGradient id="SVGID_1_" cx="1197.0427" cy="721.9922" r="1182.1324" fx="1167.3153" fy="719.9943" gradientTransform="matrix(1.7778 0 0 1.1534 -746.6667 -21.4001)" gradientUnits="userSpaceOnUse">
			<stop  offset="0" style="stop-color:#E6FFFB"/>
			<stop  offset="0.138" style="stop-color:#C0F7F4"/>
			<stop  offset="0.278" style="stop-color:#96EDED"/>
			<stop  offset="0.6313" style="stop-color:#008A8E"/>
			<stop  offset="0.7047" style="stop-color:#027C7F"/>
			<stop  offset="0.8958" style="stop-color:#065D5E"/>
			<stop  offset="1" style="stop-color:#075151"/>
		</radialGradient>
		<rect fill="url(#SVGID_1_)" width="1920" height="1080"/>
	</g>
	<rect x="-29" y="-16.3" opacity="0.4" fill="#0F161E" width="1978" height="1112.6"/>
</g>
<g id="Sky">
	<polygon fill="#FFFFFF" points="551.3,116.9 554.7,122.9 560.7,126.3 554.7,129.6 551.3,135.7 548,129.6 541.9,126.3 548,122.9 	
		"/>
	<polygon fill="#FFFFFF" points="704.8,253.7 708.1,259.8 714.2,263.1 708.1,266.4 704.8,272.5 701.5,266.4 695.4,263.1 
		701.5,259.8 	"/>
	<polygon fill="#FFFFFF" points="1275,355 1278.4,361.1 1284.5,364.4 1278.4,367.8 1275,373.8 1271.7,367.8 1265.6,364.4 
		1271.7,361.1 	"/>
	<polygon fill="#FFFFFF" points="1017.9,735.3 1021.2,741.4 1027.3,744.7 1021.2,748.1 1017.9,754.2 1014.6,748.1 1008.5,744.7 
		1014.6,741.4 	"/>
	<polygon fill="#FFFFFF" points="1051.6,595.3 1055,601.4 1061,604.7 1055,608.1 1051.6,614.1 1048.3,608.1 1042.2,604.7 
		1048.3,601.4 	"/>
	<polygon fill="#FFFFFF" points="1105,452.9 1108.4,459 1114.4,462.3 1108.4,465.6 1105,471.7 1101.7,465.6 1095.6,462.3 
		1101.7,459 	"/>
	<polygon fill="#FFFFFF" points="738.8,541.8 742.2,547.9 748.2,551.2 742.2,554.6 738.8,560.6 735.5,554.6 729.4,551.2 
		735.5,547.9 	"/>
	<polygon fill="#FFFFFF" points="1057,64.4 1060.4,70.5 1066.4,73.8 1060.4,77.1 1057,83.2 1053.7,77.1 1047.6,73.8 1053.7,70.5 	
		"/>
	<polygon fill="#FFFFFF" points="1310,45.6 1313.4,51.7 1319.4,55 1313.4,58.3 1310,64.4 1306.7,58.3 1300.6,55 1306.7,51.7 	"/>
	<polygon fill="#FFFFFF" points="484.6,253.7 487.9,259.8 494,263.1 487.9,266.4 484.6,272.5 481.2,266.4 475.2,263.1 481.2,259.8 	
		"/>
	<polygon fill="#FFFFFF" points="1432.5,253.7 1435.9,259.8 1441.9,263.1 1435.9,266.4 1432.5,272.5 1429.2,266.4 1423.1,263.1 
		1429.2,259.8 	"/>
	<polygon fill="#FFFFFF" points="804.7,90.4 808,96.5 814.1,99.8 808,103.1 804.7,109.2 801.4,103.1 795.3,99.8 801.4,96.5 	"/>
	<polygon fill="#FFFFFF" points="1175.3,184.8 1178.6,190.9 1184.7,194.3 1178.6,197.6 1175.3,203.7 1172,197.6 1165.9,194.3 
		1172,190.9 	"/>
	<polygon fill="#FFFFFF" points="600.9,194.3 604.2,200.3 610.3,203.7 604.2,207 600.9,213.1 597.5,207 591.4,203.7 597.5,200.3 	
		"/>
	<polygon fill="#FFFFFF" points="1288.1,242.2 1290.7,246.8 1295.3,249.4 1290.7,251.9 1288.1,256.6 1285.6,251.9 1280.9,249.4 
		1285.6,246.8 	"/>
	<polygon fill="#FFFFFF" points="1374.8,128.4 1377.3,133.1 1382,135.7 1377.3,138.2 1374.8,142.9 1372.2,138.2 1367.5,135.7 
		1372.2,133.1 	"/>
	<polygon fill="#FFFFFF" points="571.2,326.2 573.7,330.8 578.4,333.4 573.7,336 571.2,340.6 568.6,336 563.9,333.4 568.6,330.8 	
		"/>
	<polygon fill="#FFFFFF" points="729,142.9 731.6,147.6 736.3,150.1 731.6,152.7 729,157.3 726.5,152.7 721.8,150.1 726.5,147.6 	
		"/>
	<polygon fill="#FFFFFF" points="656.4,38.4 658.9,43 663.6,45.6 658.9,48.2 656.4,52.8 653.8,48.2 649.1,45.6 653.8,43 	"/>
	<polygon fill="#FFFFFF" points="959.9,121.2 962.4,125.9 967.1,128.4 962.4,131 959.9,135.7 957.3,131 952.7,128.4 957.3,125.9 	
		"/>
	<polygon fill="#FFFFFF" points="1358.2,326.2 1360.7,330.8 1365.4,333.4 1360.7,336 1358.2,340.6 1355.6,336 1351,333.4 
		1355.6,330.8 	"/>
	<polygon fill="#FFFFFF" points="656.4,353.9 658.2,357.3 661.6,359.1 658.2,361 656.4,364.4 654.5,361 651.1,359.1 654.5,357.3 	
		"/>
	<polygon fill="#FFFFFF" points="469.9,94.5 471.7,97.9 475.2,99.8 471.7,101.7 469.9,105.1 468,101.7 464.6,99.8 468,97.9 	"/>
	<polygon fill="#FFFFFF" points="475.2,419.9 477,423.3 480.4,425.2 477,427.1 475.2,430.5 473.3,427.1 469.9,425.2 473.3,423.3 	
		"/>
	<polygon fill="#FFFFFF" points="1062.2,179.6 1064.1,183 1067.5,184.8 1064.1,186.7 1062.2,190.1 1060.3,186.7 1056.9,184.8 
		1060.3,183 	"/>
	<polygon fill="#FFFFFF" points="1123.8,121 1125.7,124.4 1129.1,126.3 1125.7,128.1 1123.8,131.5 1122,128.1 1118.5,126.3 
		1122,124.4 	"/>
	<polygon fill="#FFFFFF" points="921.8,40.3 923.7,43.7 927.1,45.6 923.7,47.5 921.8,50.9 920,47.5 916.5,45.6 920,43.7 	"/>
	<polygon fill="#FFFFFF" points="1441.9,68.5 1443.8,71.9 1447.2,73.8 1443.8,75.7 1441.9,79.1 1440.1,75.7 1436.7,73.8 
		1440.1,71.9 	"/>
	<polygon fill="#FFFFFF" points="857.1,144.8 859,148.2 862.4,150.1 859,152 857.1,155.4 855.2,152 851.8,150.1 855.2,148.2 	"/>
	<polygon fill="#FFFFFF" points="661.6,115.9 663.5,119.4 666.9,121.2 663.5,123.1 661.6,126.5 659.8,123.1 656.4,121.2 
		659.8,119.4 	"/>
	<polygon fill="#FFFFFF" points="819.6,33.1 821.4,36.5 824.8,38.4 821.4,40.3 819.6,43.7 817.7,40.3 814.3,38.4 817.7,36.5 	"/>
	<polygon fill="#FFFFFF" points="578.4,33.1 580.2,36.5 583.7,38.4 580.2,40.3 578.4,43.7 576.5,40.3 573.1,38.4 576.5,36.5 	"/>
	<polygon fill="#FFFFFF" points="1280.3,432.8 1282.2,436.2 1285.6,438.1 1282.2,439.9 1280.3,443.4 1278.5,439.9 1275,438.1 
		1278.5,436.2 	"/>
	<polygon fill="#FFFFFF" points="709.4,739.5 711.3,742.9 714.7,744.7 711.3,746.6 709.4,750 707.5,746.6 704.1,744.7 707.5,742.9 	
		"/>
	<polygon fill="#FFFFFF" points="1260.6,696.5 1262.5,699.9 1265.9,701.8 1262.5,703.6 1260.6,707 1258.7,703.6 1255.3,701.8 
		1258.7,699.9 	"/>
	<polygon fill="#FFFFFF" points="825.6,757.5 827.5,760.9 830.9,762.8 827.5,764.7 825.6,768.1 823.8,764.7 820.3,762.8 
		823.8,760.9 	"/>
	<polygon fill="#FFFFFF" points="563.9,540.7 565.8,544.1 569.2,546 565.8,547.8 563.9,551.2 562.1,547.8 558.6,546 562.1,544.1 	
		"/>
	<polygon fill="#FFFFFF" points="729,647.2 730.9,650.6 734.3,652.5 730.9,654.3 729,657.7 727.2,654.3 723.8,652.5 727.2,650.6 	
		"/>
	<polygon fill="#FFFFFF" points="551.3,647.2 553.2,650.6 556.6,652.5 553.2,654.3 551.3,657.7 549.5,654.3 546,652.5 549.5,650.6 	
		"/>
	<polygon fill="#FFFFFF" points="748,815 749.9,818.4 753.3,820.3 749.9,822.1 748,825.6 746.1,822.1 742.7,820.3 746.1,818.4 	"/>
	<polygon fill="#FFFFFF" points="804.7,625.9 806.6,629.3 810,631.2 806.6,633 804.7,636.5 802.8,633 799.4,631.2 802.8,629.3 	"/>
	<polygon fill="#FFFFFF" points="666.9,604.7 668.8,608.1 672.2,610 668.8,611.9 666.9,615.3 665.1,611.9 661.6,610 665.1,608.1 	
		"/>
	<polygon fill="#FFFFFF" points="617.5,451.7 619.3,455.1 622.8,457 619.3,458.9 617.5,462.3 615.6,458.9 612.2,457 615.6,455.1 	
		"/>
	<polygon fill="#FFFFFF" points="795.3,427.5 797.2,430.9 800.6,432.8 797.2,434.7 795.3,438.1 793.4,434.7 790,432.8 793.4,430.9 	
		"/>
	<polygon fill="#FFFFFF" points="843.9,571.4 845.8,574.8 849.2,576.7 845.8,578.6 843.9,582 842,578.6 838.6,576.7 842,574.8 	"/>
	<polygon fill="#FFFFFF" points="838.6,507.6 840.5,511 843.9,512.9 840.5,514.8 838.6,518.2 836.7,514.8 833.3,512.9 836.7,511 	
		"/>
	<polygon fill="#FFFFFF" points="1184.7,480 1186.6,483.5 1190,485.3 1186.6,487.2 1184.7,490.6 1182.8,487.2 1179.4,485.3 
		1182.8,483.5 	"/>
	<polygon fill="#FFFFFF" points="914.2,468.6 916.1,472 919.5,473.8 916.1,475.7 914.2,479.1 912.4,475.7 909,473.8 912.4,472 	"/>
	<polygon fill="#FFFFFF" points="967.1,546 969,549.4 972.4,551.2 969,553.1 967.1,556.5 965.2,553.1 961.8,551.2 965.2,549.4 	"/>
	<polygon fill="#FFFFFF" points="622.8,744.7 624.6,748.2 628.1,750 624.6,751.9 622.8,755.3 620.9,751.9 617.5,750 620.9,748.2 	
		"/>
	<polygon fill="#FFFFFF" points="1288.9,535.4 1290.8,538.8 1294.2,540.7 1290.8,542.5 1288.9,546 1287,542.5 1283.6,540.7 
		1287,538.8 	"/>
	<polygon fill="#FFFFFF" points="1423.1,474.8 1425,478.2 1428.4,480 1425,481.9 1423.1,485.3 1421.3,481.9 1417.8,480 
		1421.3,478.2 	"/>
	<polygon fill="#FFFFFF" points="867.7,701.8 869.5,705.2 873,707 869.5,708.9 867.7,712.3 865.8,708.9 862.4,707 865.8,705.2 	"/>
	<polygon fill="#FFFFFF" points="857.1,878.3 859,881.7 862.4,883.6 859,885.4 857.1,888.8 855.2,885.4 851.8,883.6 855.2,881.7 	
		"/>
	<polygon fill="#FFFFFF" points="952.7,783.5 954.5,786.9 958,788.8 954.5,790.6 952.7,794.1 950.8,790.6 947.4,788.8 950.8,786.9 	
		"/>
	<polygon fill="#FFFFFF" points="1056.9,850 1058.8,853.4 1062.2,855.2 1058.8,857.1 1056.9,860.5 1055.1,857.1 1051.6,855.2 
		1055.1,853.4 	"/>
	<polygon fill="#FFFFFF" points="1175.3,762.8 1177.2,766.2 1180.6,768.1 1177.2,770 1175.3,773.4 1173.4,770 1170,768.1 
		1173.4,766.2 	"/>
	<polygon fill="#FFFFFF" points="1110.3,674.9 1112.2,678.3 1115.6,680.2 1112.2,682.1 1110.3,685.5 1108.5,682.1 1105,680.2 
		1108.5,678.3 	"/>
	<polygon fill="#FFFFFF" points="1335.6,636.6 1337.5,640 1340.9,641.9 1337.5,643.7 1335.6,647.2 1333.7,643.7 1330.3,641.9 
		1333.7,640 	"/>
	<polygon fill="#FFFFFF" points="1032.6,512.9 1034.5,516.3 1037.9,518.2 1034.5,520 1032.6,523.5 1030.7,520 1027.3,518.2 
		1030.7,516.3 	"/>
	<polygon fill="#FFFFFF" points="952.7,620.6 954.5,624 958,625.9 954.5,627.8 952.7,631.2 950.8,627.8 947.4,625.9 950.8,624 	"/>
	<polygon fill="#FFFFFF" points="1189.6,335.3 1191.5,338.8 1194.9,340.6 1191.5,342.5 1189.6,345.9 1187.7,342.5 1184.3,340.6 
		1187.7,338.8 	"/>
	<polygon fill="#FFFFFF" points="1194.9,615.3 1196.8,618.7 1200.2,620.6 1196.8,622.5 1194.9,625.9 1193,622.5 1189.6,620.6 
		1193,618.7 	"/>
	<polygon fill="#FFFFFF" points="563.9,251.3 565.8,254.7 569.2,256.6 565.8,258.5 563.9,261.9 562.1,258.5 558.6,256.6 
		562.1,254.7 	"/>
	<polygon fill="#FFFFFF" points="1233,92.6 1235.5,97.2 1240.2,99.8 1235.5,102.4 1233,107 1230.4,102.4 1225.8,99.8 1230.4,97.2 	
		"/>
	<polygon fill="#FFFFFF" points="251.3,116.9 254.7,122.9 260.7,126.3 254.7,129.6 251.3,135.7 248,129.6 241.9,126.3 248,122.9 	
		"/>
	<polygon fill="#FFFFFF" points="404.8,253.7 408.1,259.8 414.2,263.1 408.1,266.4 404.8,272.5 401.5,266.4 395.4,263.1 
		401.5,259.8 	"/>
	<polygon fill="#FFFFFF" points="438.8,541.8 442.2,547.9 448.2,551.2 442.2,554.6 438.8,560.6 435.5,554.6 429.4,551.2 
		435.5,547.9 	"/>
	<polygon fill="#FFFFFF" points="184.6,253.7 187.9,259.8 194,263.1 187.9,266.4 184.6,272.5 181.2,266.4 175.2,263.1 181.2,259.8 	
		"/>
	<polygon fill="#FFFFFF" points="300.9,194.3 304.2,200.3 310.3,203.7 304.2,207 300.9,213.1 297.5,207 291.4,203.7 297.5,200.3 	
		"/>
	<polygon fill="#FFFFFF" points="271.2,326.2 273.7,330.8 278.4,333.4 273.7,336 271.2,340.6 268.6,336 263.9,333.4 268.6,330.8 	
		"/>
	<polygon fill="#FFFFFF" points="429,142.9 431.6,147.6 436.3,150.1 431.6,152.7 429,157.3 426.5,152.7 421.8,150.1 426.5,147.6 	
		"/>
	<polygon fill="#FFFFFF" points="356.4,38.4 358.9,43 363.6,45.6 358.9,48.2 356.4,52.8 353.8,48.2 349.1,45.6 353.8,43 	"/>
	<polygon fill="#FFFFFF" points="356.4,353.9 358.2,357.3 361.6,359.1 358.2,361 356.4,364.4 354.5,361 351.1,359.1 354.5,357.3 	
		"/>
	<polygon fill="#FFFFFF" points="169.9,94.5 171.7,97.9 175.2,99.8 171.7,101.7 169.9,105.1 168,101.7 164.6,99.8 168,97.9 	"/>
	<polygon fill="#FFFFFF" points="175.2,419.9 177,423.3 180.4,425.2 177,427.1 175.2,430.5 173.3,427.1 169.9,425.2 173.3,423.3 	
		"/>
	<polygon fill="#FFFFFF" points="361.6,115.9 363.5,119.4 366.9,121.2 363.5,123.1 361.6,126.5 359.8,123.1 356.4,121.2 
		359.8,119.4 	"/>
	<polygon fill="#FFFFFF" points="519.6,33.1 521.4,36.5 524.8,38.4 521.4,40.3 519.6,43.7 517.7,40.3 514.3,38.4 517.7,36.5 	"/>
	<polygon fill="#FFFFFF" points="278.4,33.1 280.2,36.5 283.7,38.4 280.2,40.3 278.4,43.7 276.5,40.3 273.1,38.4 276.5,36.5 	"/>
	<polygon fill="#FFFFFF" points="409.4,739.5 411.3,742.9 414.7,744.7 411.3,746.6 409.4,750 407.5,746.6 404.1,744.7 407.5,742.9 	
		"/>
	<polygon fill="#FFFFFF" points="525.6,757.5 527.5,760.9 530.9,762.8 527.5,764.7 525.6,768.1 523.8,764.7 520.3,762.8 
		523.8,760.9 	"/>
	<polygon fill="#FFFFFF" points="429,647.2 430.9,650.6 434.3,652.5 430.9,654.3 429,657.7 427.2,654.3 423.8,652.5 427.2,650.6 	
		"/>
	<polygon fill="#FFFFFF" points="448,815 449.9,818.4 453.3,820.3 449.9,822.1 448,825.6 446.1,822.1 442.7,820.3 446.1,818.4 	"/>
	<polygon fill="#FFFFFF" points="504.7,625.9 506.6,629.3 510,631.2 506.6,633 504.7,636.5 502.8,633 499.4,631.2 502.8,629.3 	"/>
	<polygon fill="#FFFFFF" points="366.9,604.7 368.8,608.1 372.2,610 368.8,611.9 366.9,615.3 365.1,611.9 361.6,610 365.1,608.1 	
		"/>
	<polygon fill="#FFFFFF" points="317.5,451.7 319.3,455.1 322.8,457 319.3,458.9 317.5,462.3 315.6,458.9 312.2,457 315.6,455.1 	
		"/>
	<polygon fill="#FFFFFF" points="538.6,507.6 540.5,511 543.9,512.9 540.5,514.8 538.6,518.2 536.7,514.8 533.3,512.9 536.7,511 	
		"/>
	<polygon fill="#FFFFFF" points="322.8,744.7 324.6,748.2 328.1,750 324.6,751.9 322.8,755.3 320.9,751.9 317.5,750 320.9,748.2 	
		"/>
	<polygon fill="#FFFFFF" points="263.9,251.3 265.8,254.7 269.2,256.6 265.8,258.5 263.9,261.9 262.1,258.5 258.6,256.6 
		262.1,254.7 	"/>
	<polygon fill="#FFFFFF" points="134.8,303.7 138.1,309.8 144.2,313.1 138.1,316.4 134.8,322.5 131.5,316.4 125.4,313.1 
		131.5,309.8 	"/>
	<polygon fill="#FFFFFF" points="168.8,591.8 172.2,597.9 178.2,601.2 172.2,604.6 168.8,610.6 165.5,604.6 159.4,601.2 
		165.5,597.9 	"/>
	<polygon fill="#FFFFFF" points="30.9,244.3 34.2,250.3 40.3,253.7 34.2,257 30.9,263.1 27.5,257 21.4,253.7 27.5,250.3 	"/>
	<polygon fill="#FFFFFF" points="1.2,376.2 3.7,380.8 8.4,383.4 3.7,386 1.2,390.6 -1.4,386 -6.1,383.4 -1.4,380.8 	"/>
	<polygon fill="#FFFFFF" points="159,192.9 161.6,197.6 166.3,200.1 161.6,202.7 159,207.3 156.5,202.7 151.8,200.1 156.5,197.6 	
		"/>
	<polygon fill="#FFFFFF" points="86.4,88.4 88.9,93 93.6,95.6 88.9,98.2 86.4,102.8 83.8,98.2 79.1,95.6 83.8,93 	"/>
	<polygon fill="#FFFFFF" points="86.4,403.9 88.2,407.3 91.6,409.1 88.2,411 86.4,414.4 84.5,411 81.1,409.1 84.5,407.3 	"/>
	<polygon fill="#FFFFFF" points="91.6,165.9 93.5,169.4 96.9,171.2 93.5,173.1 91.6,176.5 89.8,173.1 86.4,171.2 89.8,169.4 	"/>
	<polygon fill="#FFFFFF" points="249.6,83.1 251.4,86.5 254.8,88.4 251.4,90.3 249.6,93.7 247.7,90.3 244.3,88.4 247.7,86.5 	"/>
	<polygon fill="#FFFFFF" points="8.4,83.1 10.2,86.5 13.7,88.4 10.2,90.3 8.4,93.7 6.5,90.3 3.1,88.4 6.5,86.5 	"/>
	<polygon fill="#FFFFFF" points="139.4,789.5 141.3,792.9 144.7,794.7 141.3,796.6 139.4,800 137.5,796.6 134.1,794.7 137.5,792.9 	
		"/>
	<polygon fill="#FFFFFF" points="255.6,807.5 257.5,810.9 260.9,812.8 257.5,814.7 255.6,818.1 253.8,814.7 250.3,812.8 
		253.8,810.9 	"/>
	<polygon fill="#FFFFFF" points="-6.1,590.7 -4.2,594.1 -0.8,596 -4.2,597.8 -6.1,601.2 -7.9,597.8 -11.4,596 -7.9,594.1 	"/>
	<polygon fill="#FFFFFF" points="159,697.2 160.9,700.6 164.3,702.5 160.9,704.3 159,707.7 157.2,704.3 153.8,702.5 157.2,700.6 	
		"/>
	<polygon fill="#FFFFFF" points="178,865 179.9,868.4 183.3,870.3 179.9,872.1 178,875.6 176.1,872.1 172.7,870.3 176.1,868.4 	"/>
	<polygon fill="#FFFFFF" points="234.7,675.9 236.6,679.3 240,681.2 236.6,683 234.7,686.5 232.8,683 229.4,681.2 232.8,679.3 	"/>
	<polygon fill="#FFFFFF" points="96.9,654.7 98.8,658.1 102.2,660 98.8,661.9 96.9,665.3 95.1,661.9 91.6,660 95.1,658.1 	"/>
	<polygon fill="#FFFFFF" points="47.5,501.7 49.3,505.1 52.8,507 49.3,508.9 47.5,512.3 45.6,508.9 42.2,507 45.6,505.1 	"/>
	<polygon fill="#FFFFFF" points="225.3,477.5 227.2,480.9 230.6,482.8 227.2,484.7 225.3,488.1 223.4,484.7 220,482.8 223.4,480.9 	
		"/>
	<polygon fill="#FFFFFF" points="268.6,557.6 270.5,561 273.9,562.9 270.5,564.8 268.6,568.2 266.7,564.8 263.3,562.9 266.7,561 	
		"/>
	<polygon fill="#FFFFFF" points="52.8,794.7 54.6,798.2 58.1,800 54.6,801.9 52.8,805.3 50.9,801.9 47.5,800 50.9,798.2 	"/>
	<polygon fill="#FFFFFF" points="-6.1,301.3 -4.2,304.7 -0.8,306.6 -4.2,308.5 -6.1,311.9 -7.9,308.5 -11.4,306.6 -7.9,304.7 	"/>
	<polygon fill="#FFFFFF" points="1805,335 1808.4,341.1 1814.5,344.4 1808.4,347.8 1805,353.8 1801.7,347.8 1795.6,344.4 
		1801.7,341.1 	"/>
	<polygon fill="#FFFFFF" points="1622,408.9 1625.4,415 1631.4,418.3 1625.4,421.6 1622,427.7 1618.7,421.6 1612.6,418.3 
		1618.7,415 	"/>
	<polygon fill="#FFFFFF" points="1840,25.6 1843.4,31.7 1849.4,35 1843.4,38.3 1840,44.4 1836.7,38.3 1830.6,35 1836.7,31.7 	"/>
	<polygon fill="#FFFFFF" points="1962.5,233.7 1965.9,239.8 1971.9,243.1 1965.9,246.4 1962.5,252.5 1959.2,246.4 1953.1,243.1 
		1959.2,239.8 	"/>
	<polygon fill="#FFFFFF" points="1705.3,164.8 1708.6,170.9 1714.7,174.3 1708.6,177.6 1705.3,183.7 1702,177.6 1695.9,174.3 
		1702,170.9 	"/>
	<polygon fill="#FFFFFF" points="1818.1,222.2 1820.7,226.8 1825.3,229.4 1820.7,231.9 1818.1,236.6 1815.6,231.9 1810.9,229.4 
		1815.6,226.8 	"/>
	<polygon fill="#FFFFFF" points="1904.8,108.4 1907.3,113.1 1912,115.7 1907.3,118.2 1904.8,122.9 1902.2,118.2 1897.5,115.7 
		1902.2,113.1 	"/>
	<polygon fill="#FFFFFF" points="1888.2,306.2 1890.7,310.8 1895.4,313.4 1890.7,316 1888.2,320.6 1885.6,316 1881,313.4 
		1885.6,310.8 	"/>
	<polygon fill="#FFFFFF" points="1895.4,185.6 1897.3,189 1900.7,190.9 1897.3,192.7 1895.4,196.2 1893.5,192.7 1890.1,190.9 
		1893.5,189 	"/>
	<polygon fill="#FFFFFF" points="1982.5,154.3 1984.4,157.7 1987.8,159.6 1984.4,161.4 1982.5,164.8 1980.7,161.4 1977.2,159.6 
		1980.7,157.7 	"/>
	<polygon fill="#FFFFFF" points="1653.8,101 1655.7,104.4 1659.1,106.3 1655.7,108.1 1653.8,111.5 1652,108.1 1648.5,106.3 
		1652,104.4 	"/>
	<polygon fill="#FFFFFF" points="1971.9,48.5 1973.8,51.9 1977.2,53.8 1973.8,55.7 1971.9,59.1 1970.1,55.7 1966.7,53.8 
		1970.1,51.9 	"/>
	<polygon fill="#FFFFFF" points="1810.3,412.8 1812.2,416.2 1815.6,418.1 1812.2,419.9 1810.3,423.4 1808.5,419.9 1805,418.1 
		1808.5,416.2 	"/>
	<polygon fill="#FFFFFF" points="1790.6,676.5 1792.5,679.9 1795.9,681.8 1792.5,683.6 1790.6,687 1788.7,683.6 1785.3,681.8 
		1788.7,679.9 	"/>
	<polygon fill="#FFFFFF" points="1714.7,460 1716.6,463.5 1720,465.3 1716.6,467.2 1714.7,470.6 1712.8,467.2 1709.4,465.3 
		1712.8,463.5 	"/>
	<polygon fill="#FFFFFF" points="1818.9,515.4 1820.8,518.8 1824.2,520.7 1820.8,522.5 1818.9,526 1817,522.5 1813.6,520.7 
		1817,518.8 	"/>
	<polygon fill="#FFFFFF" points="1953.1,454.8 1955,458.2 1958.4,460 1955,461.9 1953.1,465.3 1951.3,461.9 1947.8,460 
		1951.3,458.2 	"/>
	<polygon fill="#FFFFFF" points="1705.3,742.8 1707.2,746.2 1710.6,748.1 1707.2,750 1705.3,753.4 1703.4,750 1700,748.1 
		1703.4,746.2 	"/>
	<polygon fill="#FFFFFF" points="1640.3,654.9 1642.2,658.3 1645.6,660.2 1642.2,662.1 1640.3,665.5 1638.5,662.1 1635,660.2 
		1638.5,658.3 	"/>
	<polygon fill="#FFFFFF" points="1865.6,616.6 1867.5,620 1870.9,621.9 1867.5,623.7 1865.6,627.2 1863.7,623.7 1860.3,621.9 
		1863.7,620 	"/>
	<polygon fill="#FFFFFF" points="1724.9,595.3 1726.8,598.7 1730.2,600.6 1726.8,602.5 1724.9,605.9 1723,602.5 1719.6,600.6 
		1723,598.7 	"/>
	<polygon fill="#FFFFFF" points="1763,72.6 1765.5,77.2 1770.2,79.8 1765.5,82.4 1763,87 1760.4,82.4 1755.8,79.8 1760.4,77.2 	"/>
	<polygon fill="#FFFFFF" points="1532,423 1535.4,429.1 1541.5,432.4 1535.4,435.8 1532,441.8 1528.7,435.8 1522.6,432.4 
		1528.7,429.1 	"/>
	<polygon fill="#FFFFFF" points="1362,520.9 1365.4,527 1371.4,530.3 1365.4,533.6 1362,539.7 1358.7,533.6 1352.6,530.3 
		1358.7,527 	"/>
	<polygon fill="#FFFFFF" points="1567,113.6 1570.4,119.7 1576.4,123 1570.4,126.3 1567,132.4 1563.7,126.3 1557.6,123 
		1563.7,119.7 	"/>
	<polygon fill="#FFFFFF" points="1689.5,321.7 1692.9,327.8 1698.9,331.1 1692.9,334.4 1689.5,340.5 1686.2,334.4 1680.1,331.1 
		1686.2,327.8 	"/>
	<polygon fill="#FFFFFF" points="1432.3,252.8 1435.6,258.9 1441.7,262.3 1435.6,265.6 1432.3,271.7 1429,265.6 1422.9,262.3 
		1429,258.9 	"/>
	<polygon fill="#FFFFFF" points="1545.1,310.2 1547.7,314.8 1552.3,317.4 1547.7,319.9 1545.1,324.6 1542.6,319.9 1537.9,317.4 
		1542.6,314.8 	"/>
	<polygon fill="#FFFFFF" points="1631.8,196.4 1634.3,201.1 1639,203.7 1634.3,206.2 1631.8,210.9 1629.2,206.2 1624.5,203.7 
		1629.2,201.1 	"/>
	<polygon fill="#FFFFFF" points="1622.4,273.6 1624.3,277 1627.7,278.9 1624.3,280.7 1622.4,284.2 1620.5,280.7 1617.1,278.9 
		1620.5,277 	"/>
	<polygon fill="#FFFFFF" points="1709.5,242.3 1711.4,245.7 1714.8,247.6 1711.4,249.4 1709.5,252.8 1707.7,249.4 1704.2,247.6 
		1707.7,245.7 	"/>
	<polygon fill="#FFFFFF" points="1380.8,189 1382.7,192.4 1386.1,194.3 1382.7,196.1 1380.8,199.5 1379,196.1 1375.5,194.3 
		1379,192.4 	"/>
	<polygon fill="#FFFFFF" points="1537.3,500.8 1539.2,504.2 1542.6,506.1 1539.2,507.9 1537.3,511.4 1535.5,507.9 1532,506.1 
		1535.5,504.2 	"/>
	<polygon fill="#FFFFFF" points="1517.6,764.5 1519.5,767.9 1522.9,769.8 1519.5,771.6 1517.6,775 1515.7,771.6 1512.3,769.8 
		1515.7,767.9 	"/>
	<polygon fill="#FFFFFF" points="1441.7,548 1443.6,551.5 1447,553.3 1443.6,555.2 1441.7,558.6 1439.8,555.2 1436.4,553.3 
		1439.8,551.5 	"/>
	<polygon fill="#FFFFFF" points="1545.9,603.4 1547.8,606.8 1551.2,608.7 1547.8,610.5 1545.9,614 1544,610.5 1540.6,608.7 
		1544,606.8 	"/>
	<polygon fill="#FFFFFF" points="1680.1,542.8 1682,546.2 1685.4,548 1682,549.9 1680.1,553.3 1678.3,549.9 1674.8,548 
		1678.3,546.2 	"/>
	<polygon fill="#FFFFFF" points="1432.3,830.8 1434.2,834.2 1437.6,836.1 1434.2,838 1432.3,841.4 1430.4,838 1427,836.1 
		1430.4,834.2 	"/>
	<polygon fill="#FFFFFF" points="1367.3,742.9 1369.2,746.3 1372.6,748.2 1369.2,750.1 1367.3,753.5 1365.5,750.1 1362,748.2 
		1365.5,746.3 	"/>
	<polygon fill="#FFFFFF" points="1592.6,704.6 1594.5,708 1597.9,709.9 1594.5,711.7 1592.6,715.2 1590.7,711.7 1587.3,709.9 
		1590.7,708 	"/>
	<polygon fill="#FFFFFF" points="1446.6,403.3 1448.5,406.8 1451.9,408.6 1448.5,410.5 1446.6,413.9 1444.7,410.5 1441.3,408.6 
		1444.7,406.8 	"/>
	<polygon fill="#FFFFFF" points="1451.9,683.3 1453.8,686.7 1457.2,688.6 1453.8,690.5 1451.9,693.9 1450,690.5 1446.6,688.6 
		1450,686.7 	"/>
	<polygon fill="#FFFFFF" points="1490,160.6 1492.5,165.2 1497.2,167.8 1492.5,170.4 1490,175 1487.4,170.4 1482.8,167.8 
		1487.4,165.2 	"/>
</g>
<g id="FX">
	<linearGradient id="SVGID_2_" gradientUnits="userSpaceOnUse" x1="0" y1="186.2705" x2="1918" y2="186.2705">
		<stop  offset="0" style="stop-color:#5E2746"/>
		<stop  offset="0.1912" style="stop-color:#52344F;stop-opacity:0.8088"/>
		<stop  offset="0.5436" style="stop-color:#325668;stop-opacity:0.4564"/>
		<stop  offset="1" style="stop-color:#008A8E;stop-opacity:0"/>
	</linearGradient>
	<path opacity="0.2" fill="url(#SVGID_2_)" d="M0,0v372.5c0,0,398.1-233.4,1200.4-217.5S1915.2,0,1915.2,0H0z"/>
	<linearGradient id="SVGID_3_" gradientUnits="userSpaceOnUse" x1="0" y1="255.098" x2="1920" y2="255.098">
		<stop  offset="0" style="stop-color:#075151"/>
		<stop  offset="0.1917" style="stop-color:#056364;stop-opacity:0.8083"/>
		<stop  offset="0.4848" style="stop-color:#02787B;stop-opacity:0.5152"/>
		<stop  offset="0.7608" style="stop-color:#018689;stop-opacity:0.2392"/>
		<stop  offset="1" style="stop-color:#008A8E;stop-opacity:0"/>
	</linearGradient>
	<path opacity="0.3" fill="url(#SVGID_3_)" d="M0,167.1c0,0,617.8-25.3,1118.3,152.2c507.9,180,568.8,179.6,801.7,191L1917.2,0H0
		V167.1z"/>
	<linearGradient id="SVGID_4_" gradientUnits="userSpaceOnUse" x1="414.853" y1="506.8503" x2="1920" y2="506.8503">
		<stop  offset="0" style="stop-color:#075151"/>
		<stop  offset="0.1917" style="stop-color:#056364;stop-opacity:0.8083"/>
		<stop  offset="0.4848" style="stop-color:#02787B;stop-opacity:0.5152"/>
		<stop  offset="0.7608" style="stop-color:#018689;stop-opacity:0.2392"/>
		<stop  offset="1" style="stop-color:#008A8E;stop-opacity:0"/>
	</linearGradient>
	<polygon opacity="0.5" fill="url(#SVGID_4_)" points="1920,849.7 1575.9,1005.7 414.9,8 1916.9,8 	"/>
</g>
<g id="Sand">
	<path opacity="0.3" fill="#E6FFFB" d="M0,689.7c0,0,404.6-253.4,853.6-199.5c448.9,53.9,559.6,123.4,1064.4,125.5V1080H0V689.7z"/>
	<g>
		<g>
			<g>
				<path fill="#9A8072" d="M1533,867.7c0,0-111.8-30.5-153.8-28.9c-43.6,1.6-202.4,85-212,86.3c-9.6,1.3-134-98.4-181.9-101.2
					c-59.3-3.4-249.6,46.3-249.6,46.3v102.1H1920l2-151.4C1782.8,795.9,1653.2,809.9,1533,867.7z"/>
				<g>
					<linearGradient id="SVGID_5_" gradientUnits="userSpaceOnUse" x1="800.7383" y1="1108.2816" x2="2216.8984" y2="654.8508">
						<stop  offset="0" style="stop-color:#FFDBAB"/>
						<stop  offset="0.2538" style="stop-color:#FDD9A8"/>
						<stop  offset="0.4054" style="stop-color:#F7D1A0"/>
						<stop  offset="0.5298" style="stop-color:#EDC592"/>
						<stop  offset="0.6053" style="stop-color:#E3B985"/>
						<stop  offset="0.6355" style="stop-color:#DBAE7D"/>
						<stop  offset="0.7116" style="stop-color:#CC966E"/>
						<stop  offset="0.7932" style="stop-color:#C18663"/>
						<stop  offset="0.8836" style="stop-color:#BA7C5C"/>
						<stop  offset="1" style="stop-color:#B8795A"/>
					</linearGradient>
					<path fill="url(#SVGID_5_)" d="M420,900.1c0,0,180.9-45,202.3-48.6c21.4-3.6,40-19.3,161.6,24.3
						c121.5,43.6,196.6,37.2,201.4,38.1l132.5-59.1c0,0,25.7-13.8,63.4,3.3c37.7,17.2,190.5,39.8,318.8,10.5l422-53.6l-2,265
						l-1500-6.2V900.1z"/>
					<linearGradient id="SVGID_6_" gradientUnits="userSpaceOnUse" x1="991.1172" y1="918.9935" x2="1166.7769" y2="871.1002">
						<stop  offset="0" style="stop-color:#C09871"/>
						<stop  offset="0.4193" style="stop-color:#BD9671"/>
						<stop  offset="0.6698" style="stop-color:#B59171"/>
						<stop  offset="0.8753" style="stop-color:#A78872"/>
						<stop  offset="1" style="stop-color:#9A8072"/>
					</linearGradient>
					<path fill="url(#SVGID_6_)" d="M1120.2,913.9c19.5-3.8,39.1-14.3,45.8-30c6.7-15.7-15.2-32.8-24.8-34.3l0,0
						c-14.7,0.5-23.4,5.2-23.4,5.2l-132.5,59.1C985.3,913.9,1100.6,917.7,1120.2,913.9z"/>
					<linearGradient id="SVGID_7_" gradientUnits="userSpaceOnUse" x1="750" y1="1081.7614" x2="750" y2="841.9376">
						<stop  offset="0" style="stop-color:#FFDBAB"/>
						<stop  offset="0.1812" style="stop-color:#F6D09F"/>
						<stop  offset="0.6053" style="stop-color:#E3B985"/>
						<stop  offset="0.6944" style="stop-color:#DFB481"/>
						<stop  offset="0.8072" style="stop-color:#D5A477"/>
						<stop  offset="0.9321" style="stop-color:#C48A66"/>
						<stop  offset="1" style="stop-color:#B8795A"/>
					</linearGradient>
					<path fill="url(#SVGID_7_)" d="M1500,1016.9c-33.4-16.2-207.8-43.8-305-43.8c-97.2,0-238.3,0-427.1-51.5
						c-170.7-46.5-130.1-70.9-120.8-75.1c-10.7,1.2-17.6,3.8-24.8,5C600.9,855.1,0,1001,0,1001v79h1500V1016.9z"/>
				</g>
				<g>
					<g>
						<path fill="#0F161E" d="M516.4,845c0,0-0.9-1.3-2.4-1c-1.6,0.3-2.7,0.3-3.4,0.2c-0.7,0-2.4,0-2.8,0.5
							c-0.4,0.5-0.9,0.8-0.6,2.8c0.3,2-0.5,4-0.9,5c-0.5,1-1.3,2.1-3.8,2.1c-2.5,0-5.2-2.3-6-2.9c-0.8-0.6-3-1.2-5.4-0.2
							c0,0-0.8,0.5-1.7-0.2c-0.9-0.6-4.9-2.9-7.7,1c0,0-1.2,2-0.8,3.5c0,0-3.3,1.1-4.2,2.9c-0.9,1.9-0.7,3.5-0.7,3.5l0.2,0.1
							c0,0-3.8,7.5-3.9,8.5c-0.1,1,0.6,2.4,0.6,2.4s-1.4,2.6-1.4,3.4c0,0.8,1.2,6.7,1.5,8.2c0.3,1.5,0.4,2,1.1,2
							c0.7,0,2.1-0.3,1.4-1.1c0,0-0.3-0.2-0.6,0c0,0-1.3-5.5-1.1-5.9c0,0,0.4-3.4,1.2-4.9c0.8-1.4,1.4-2.4,2.1-2.9
							c0.7-0.5,1.3-1.6,1.4-3.4c0,0,2.5,1.9,3,3.3c0.4,1.4,0.8,4.4,1.4,5.2c0.6,0.9,6.5,4.6,6.9,5.3c0.4,0.7,2.2,0.3,2.8,0.1
							c0.6-0.2,0.5-0.9-0.6-1c-1.2-0.1-5.3-3.4-6-4.4c-0.7-1-1.9-5.7-1.8-6.1c0.1-0.4,0.5-0.2,0.2-1.9c-0.3-1.7-0.5-2.6-0.5-2.6
							s2,0.5,3.5,0.5c1.5,0.1,6.7-1.3,6.7-1.3s-0.1,4.1-0.1,5.2c0,1,1.5,7.3,1.7,8.1c0.2,0.8,0.1,2.5,0.6,2.4c0.4-0.1,4.2-0.7,2.7-1
							c-1.5-0.3-1.4,0.2-1.5-0.3c-0.1-0.6-1.6-5.9-1.5-6.3c0.1-0.3,0.4-4.5,0.5-5c0.1-0.6-0.2-3.3,0.6-4c0.8-0.7,2.5,0.3,4.7,2.1
							c2.2,1.8,3.4,2,4.1,3.7c0.7,1.7,2,6.7,2.5,7.1c0.5,0.3,0.7,0.5,2.8-0.1c2.1-0.7-0.4-1.1-0.8-1c-0.4,0-1.3-1.6-1.5-2
							c-0.2-0.4-1.4-4.8-1.4-5c-0.1-0.1-0.3-2.1-1.7-2.6c-1.4-0.5-4.8-4.2-4.8-4.7c0-0.6,0.8-1.8,0.8-1.8s0.6-0.3,2.5-0.5
							c1.9-0.2,4.1-1.2,5-3.2c0.9-2,3.2-8.2,3.6-8.4c0.5-0.2,4.1-0.8,4.4-1.2C517.3,846.9,516.6,845.2,516.4,845z"/>
						
							<linearGradient id="SVGID_8_" gradientUnits="userSpaceOnUse" x1="347.9601" y1="863.119" x2="347.9601" y2="829.5913" gradientTransform="matrix(0.9727 -0.2321 0.2321 0.9727 -45.5075 156.8666)">
							<stop  offset="0" style="stop-color:#E3B985;stop-opacity:0"/>
							<stop  offset="0.2551" style="stop-color:#B88467;stop-opacity:0.1272"/>
							<stop  offset="0.4012" style="stop-color:#A46A59;stop-opacity:0.2"/>
							<stop  offset="1" style="stop-color:#A46A59"/>
						</linearGradient>
						<path fill="url(#SVGID_8_)" d="M508.1,909.6c0,0-1.3,1.8-3,2.3c-1.7,0.5-3.1,1.1-3.9,1.5c-0.8,0.4-2.8,1.2-3.2,0.9
							c-0.4-0.3-0.9-0.4,0.1-2.7c0.9-2.3,0.5-4,0.2-4.8c-0.3-0.8-0.9-1.5-3.7-0.3c-2.8,1.2-6.6,5.1-7.7,6.2c-1.1,1-3.9,2.8-6.3,3
							c0,0-0.8-0.1-2.1,1.1c-1.2,1.1-6.7,5.7-8.6,2.9c0,0-0.7-1.5,0.2-3.3c0,0-3.4,0.5-3.9-1c-0.4-1.5,0.4-3.4,0.4-3.4l0.3-0.3
							c0,0-1.6-6.2-1.4-7.2c0.2-1,1.6-3,1.6-3s-0.6-2.1-0.3-3c0.3-0.8,3.9-7.9,4.8-9.7c0.9-1.8,1.2-2.3,2-2.7
							c0.8-0.4,2.2-0.7,1.1,0.5c0,0-0.4,0.4-0.7,0.3c0,0-3.6,6.7-3.5,7c0,0-0.9,3.6-0.5,4.7c0.4,1.1,0.7,1.9,1.3,2.1
							c0.6,0.2,0.9,1.1,0.3,3c0,0,3.5-3.3,4.5-5c1-1.7,2.4-5.1,3.4-6.4c1-1.2,8.8-8.2,9.5-9.2c0.7-1,2.5-1.4,3.1-1.5
							c0.6,0,0.3,0.7-1,1.4c-1.3,0.7-7,6.3-8.1,7.8c-1.1,1.4-4.1,7.1-4.1,7.5c-0.1,0.4,0.5,0-0.4,2c-0.9,2-1.4,3-1.4,3
							s2.5-1.6,4.2-2.4c1.7-0.8,7.1-1.9,7.1-1.9s1.2-4.4,1.5-5.5c0.4-1.1,4.1-8.7,4.5-9.6c0.5-0.9,1-2.7,1.4-2.8
							c0.4-0.1,4.3-1.3,2.6-0.2c-1.7,1.1-1.4,0.4-1.7,1.1c-0.3,0.7-3.7,7.2-3.6,7.5c0,0.3-0.9,4.6-1,5.1c-0.1,0.6-1.3,3.7-0.6,4
							c0.7,0.3,2.9-1.6,5.9-4.6c3-3,4.3-3.9,5.6-6c1.3-2.1,4.2-8.2,4.8-8.8c0.6-0.6,0.9-0.9,3-1.3c2.1-0.3-0.7,1.3-1.2,1.5
							c-0.4,0.2-1.9,2.4-2.2,2.9c-0.3,0.5-2.9,5.8-3,6c-0.1,0.2-1,2.4-2.7,3.7c-1.7,1.3-6.6,6.9-6.8,7.5c-0.2,0.6,0.3,1.6,0.3,1.6
							s0.6,0,2.7-0.7c2-0.7,4.3-0.8,4.8,0.8c0.5,1.6,1.5,7,2,7c0.5,0,4.5-1.3,4.8-1C509.6,907.1,508.4,909.3,508.1,909.6z"/>
						<g>
							
								<linearGradient id="SVGID_9_" gradientUnits="userSpaceOnUse" x1="404.0246" y1="860.8939" x2="404.0246" y2="829.5944" gradientTransform="matrix(0.9727 -0.2321 0.2321 0.9727 -45.5075 156.8666)">
								<stop  offset="0" style="stop-color:#E3B985;stop-opacity:0"/>
								<stop  offset="0.2551" style="stop-color:#B88467;stop-opacity:0.1272"/>
								<stop  offset="0.4012" style="stop-color:#A46A59;stop-opacity:0.2"/>
								<stop  offset="1" style="stop-color:#A46A59"/>
							</linearGradient>
							<path fill="url(#SVGID_9_)" d="M561.1,894.9c0,0-1.2,1.7-2.8,2.1c-1.6,0.4-2.8,1-3.6,1.4c-0.8,0.4-2.6,1.1-3,0.9
								c-0.4-0.3-0.8-0.4,0-2.5c0.9-2.1,0.5-3.7,0.2-4.5c-0.2-0.8-0.8-1.4-3.5-0.3c-2.7,1.2-6.2,4.8-7.2,5.8c-1,1-3.6,2.6-5.9,2.8
								c0,0-0.8-0.1-1.9,1c-1.2,1-6.2,5.3-8.1,2.7c0,0-0.7-1.4,0.2-3.1c0,0-3.2,0.5-3.6-1c-0.4-1.4,0.4-3.2,0.4-3.2l0.3-0.2
								c0,0-1.5-5.8-1.3-6.7c0.2-0.9,1.5-2.8,1.5-2.8s-0.5-2-0.3-2.8c0.3-0.8,3.6-7.4,4.5-9c0.8-1.7,1.1-2.2,1.8-2.5
								c0.7-0.4,2-0.7,1,0.5c0,0-0.4,0.4-0.6,0.3c0,0-3.4,6.3-3.3,6.6c0,0-0.8,3.3-0.4,4.4c0.4,1,0.7,1.8,1.2,1.9
								c0.5,0.2,0.9,1,0.3,2.8c0,0,3.3-3.1,4.2-4.7c0.9-1.6,2.2-4.8,3.2-6c0.9-1.2,8.2-7.7,8.8-8.6c0.6-0.9,2.3-1.3,2.9-1.4
								c0.5,0,0.3,0.7-1,1.3c-1.2,0.7-6.6,5.9-7.6,7.3c-1,1.3-3.8,6.6-3.9,7c-0.1,0.4,0.5,0-0.4,1.8c-0.9,1.9-1.3,2.8-1.3,2.8
								s2.3-1.4,3.9-2.2c1.6-0.8,6.6-1.8,6.6-1.8s1.1-4.1,1.4-5.1c0.4-1.1,3.8-8.1,4.2-9c0.4-0.9,0.9-2.6,1.3-2.7
								c0.4-0.1,4-1.2,2.4-0.2c-1.6,1-1.3,0.4-1.6,1c-0.3,0.6-3.4,6.7-3.4,7c0,0.3-0.9,4.3-0.9,4.8c-0.1,0.5-1.2,3.5-0.6,3.7
								c0.7,0.3,2.7-1.5,5.5-4.3c2.8-2.8,4-3.6,5.2-5.6c1.2-2,3.9-7.7,4.5-8.2c0.6-0.6,0.8-0.9,2.8-1.2c1.9-0.3-0.7,1.2-1.1,1.4
								c-0.4,0.2-1.8,2.2-2.1,2.7c-0.3,0.5-2.7,5.4-2.8,5.6c-0.1,0.2-0.9,2.3-2.5,3.4c-1.6,1.2-6.1,6.4-6.3,7
								c-0.2,0.6,0.3,1.5,0.3,1.5s0.6,0,2.5-0.7c1.9-0.7,4-0.7,4.5,0.8c0.5,1.5,1.4,6.6,1.9,6.6c0.4,0,4.2-1.2,4.5-1
								C562.5,892.5,561.4,894.6,561.1,894.9z"/>
							<path fill="#0F161E" d="M567.9,836.2c0,0-0.8-1.2-2.2-0.9c-1.4,0.3-2.4,0.2-3,0.2c-0.6,0-2.1,0-2.5,0.4
								c-0.4,0.4-0.8,0.8-0.5,2.5c0.3,1.8-0.4,3.6-0.8,4.5c-0.4,0.9-1.1,1.8-3.4,1.9c-2.2,0-4.6-2.1-5.4-2.6c-0.7-0.5-2.7-1-4.8-0.2
								c0,0-0.7,0.4-1.5-0.1c-0.8-0.5-4.4-2.6-6.8,0.9c0,0-1,1.8-0.7,3.1c0,0-2.9,1-3.7,2.6c-0.8,1.7-0.7,3.1-0.7,3.1l0.2,0.1
								c0,0-3.4,6.7-3.5,7.5c-0.1,0.9,0.5,2.2,0.5,2.2s-1.3,2.3-1.2,3c0,0.7,1,5.9,1.3,7.3c0.3,1.4,0.3,1.7,0.9,1.8
								c0.6,0,1.9-0.3,1.2-1c0,0-0.3-0.2-0.5,0c0,0-1.2-4.9-1-5.3c0,0,0.4-3.1,1.1-4.3c0.7-1.3,1.3-2.1,1.9-2.6
								c0.6-0.4,1.2-1.4,1.2-3c0,0,2.2,1.7,2.6,2.9c0.4,1.2,0.7,3.9,1.2,4.7c0.6,0.8,5.8,4.1,6.2,4.7c0.4,0.6,2,0.3,2.5,0.1
								c0.5-0.2,0.5-0.8-0.6-0.9c-1-0.1-4.8-3-5.4-3.9c-0.6-0.9-1.7-5-1.6-5.4c0.1-0.4,0.5-0.2,0.2-1.7c-0.3-1.5-0.4-2.3-0.4-2.3
								s1.8,0.4,3.1,0.5c1.3,0.1,6-1.2,6-1.2s-0.1,3.7-0.1,4.6c0,0.9,1.4,6.5,1.5,7.2c0.2,0.7,0.1,2.2,0.5,2.1
								c0.4-0.1,3.7-0.6,2.4-0.9c-1.3-0.3-1.2,0.2-1.3-0.3c-0.1-0.5-1.4-5.3-1.3-5.6c0.1-0.3,0.4-4,0.5-4.5c0.1-0.5-0.2-3,0.5-3.5
								c0.7-0.6,2.2,0.3,4.2,1.8c2,1.6,3,1.8,3.7,3.3c0.7,1.5,1.8,6,2.3,6.3c0.5,0.3,0.6,0.5,2.5-0.1c1.9-0.6-0.3-0.9-0.7-0.9
								c-0.4,0-1.2-1.4-1.4-1.8c-0.2-0.4-1.2-4.3-1.3-4.4c-0.1-0.1-0.3-1.9-1.5-2.4c-1.2-0.5-4.3-3.7-4.3-4.2c0-0.5,0.7-1.6,0.7-1.6
								s0.6-0.3,2.2-0.4c1.7-0.2,3.6-1.1,4.5-2.8c0.8-1.8,2.8-7.3,3.2-7.5c0.4-0.2,3.6-0.7,4-1C568.7,837.9,568.1,836.4,567.9,836.2
								z"/>
						</g>
					</g>
					<g>
						
							<linearGradient id="SVGID_10_" gradientUnits="userSpaceOnUse" x1="457.7907" y1="856.3827" x2="457.7907" y2="830.2037" gradientTransform="matrix(0.9727 -0.2321 0.2321 0.9727 -45.5075 156.8666)">
							<stop  offset="0" style="stop-color:#E3B985;stop-opacity:0"/>
							<stop  offset="0.2551" style="stop-color:#B88467;stop-opacity:0.1272"/>
							<stop  offset="0.4012" style="stop-color:#A46A59;stop-opacity:0.2"/>
							<stop  offset="1" style="stop-color:#A46A59"/>
						</linearGradient>
						<path fill="url(#SVGID_10_)" d="M610.1,878.9c0,0-1,1.4-2.4,1.8c-1.3,0.4-2.4,0.9-3,1.2c-0.6,0.3-2.2,1-2.5,0.7
							c-0.3-0.2-0.7-0.3,0-2.1c0.7-1.8,0.4-3.1,0.2-3.8c-0.2-0.6-0.7-1.2-2.9-0.2c-2.2,1-5.2,4-6,4.8c-0.9,0.8-3,2.2-4.9,2.3
							c0,0-0.7,0-1.6,0.8c-1,0.9-5.2,4.4-6.8,2.2c0,0-0.6-1.2,0.2-2.6c0,0-2.7,0.4-3-0.8c-0.3-1.2,0.3-2.7,0.3-2.7l0.2-0.2
							c0,0-1.3-4.8-1.1-5.6c0.2-0.8,1.2-2.3,1.2-2.3s-0.5-1.7-0.2-2.3c0.2-0.6,3.1-6.2,3.8-7.6c0.7-1.4,0.9-1.8,1.5-2.1
							c0.6-0.3,1.7-0.6,0.8,0.4c0,0-0.3,0.3-0.5,0.2c0,0-2.8,5.2-2.8,5.5c0,0-0.7,2.8-0.4,3.6c0.3,0.9,0.6,1.5,1,1.6
							c0.5,0.2,0.7,0.8,0.3,2.3c0,0,2.7-2.6,3.5-3.9c0.8-1.3,1.9-4,2.7-5c0.8-1,6.8-6.4,7.4-7.2c0.5-0.8,1.9-1.1,2.4-1.1
							c0.4,0,0.2,0.6-0.8,1.1c-1,0.6-5.5,5-6.3,6.1c-0.8,1.1-3.2,5.5-3.2,5.8c0,0.3,0.4,0-0.3,1.5c-0.7,1.6-1.1,2.4-1.1,2.4
							s1.9-1.2,3.3-1.9c1.3-0.6,5.6-1.5,5.6-1.5s0.9-3.4,1.2-4.3c0.3-0.9,3.2-6.8,3.5-7.5c0.4-0.7,0.8-2.1,1.1-2.2
							c0.3-0.1,3.3-1,2-0.2c-1.3,0.8-1.1,0.3-1.3,0.8c-0.3,0.5-2.9,5.6-2.8,5.8c0,0.2-0.7,3.6-0.8,4c-0.1,0.4-1,2.9-0.5,3.1
							c0.6,0.2,2.2-1.2,4.6-3.6c2.3-2.4,3.4-3,4.4-4.7c1-1.7,3.3-6.4,3.8-6.9c0.5-0.5,0.7-0.7,2.3-1c1.6-0.3-0.6,1-0.9,1.2
							c-0.3,0.1-1.5,1.9-1.7,2.3c-0.2,0.4-2.2,4.6-2.3,4.7c-0.1,0.1-0.8,1.9-2.1,2.9c-1.3,1-5.1,5.4-5.3,5.9
							c-0.1,0.5,0.3,1.2,0.3,1.2s0.5,0,2.1-0.6c1.6-0.6,3.3-0.6,3.7,0.7c0.4,1.3,1.2,5.5,1.6,5.5c0.4,0,3.5-1,3.7-0.8
							C611.3,877,610.3,878.7,610.1,878.9z"/>
						<path fill="#0F161E" d="M616.3,828c0,0-0.7-1-1.9-0.8c-1.2,0.2-2.1,0.2-2.7,0.2c-0.5,0-1.9,0-2.2,0.4
							c-0.4,0.4-0.7,0.7-0.5,2.2c0.3,1.6-0.4,3.1-0.7,3.9c-0.4,0.8-1,1.6-2.9,1.6c-2,0-4.1-1.8-4.7-2.3c-0.6-0.4-2.4-0.9-4.2-0.1
							c0,0-0.7,0.4-1.4-0.1c-0.7-0.5-3.8-2.3-6,0.8c0,0-0.9,1.5-0.6,2.7c0,0-2.5,0.9-3.3,2.3c-0.7,1.5-0.6,2.7-0.6,2.7l0.2,0.1
							c0,0-3,5.9-3.1,6.6c-0.1,0.8,0.5,1.9,0.5,1.9s-1.1,2-1.1,2.6c0,0.6,0.9,5.2,1.1,6.4c0.2,1.2,0.3,1.5,0.8,1.6
							c0.5,0,1.6-0.2,1.1-0.9c0,0-0.2-0.2-0.5,0c0,0-1-4.3-0.9-4.6c0,0,0.3-2.7,1-3.8c0.7-1.1,1.1-1.9,1.7-2.3
							c0.5-0.4,1-1.3,1.1-2.6c0,0,2,1.5,2.3,2.6c0.4,1.1,0.6,3.4,1.1,4.1c0.5,0.7,5.1,3.6,5.4,4.1c0.3,0.5,1.7,0.2,2.2,0
							c0.5-0.2,0.4-0.7-0.5-0.8c-0.9-0.1-4.2-2.7-4.7-3.4c-0.5-0.8-1.5-4.4-1.4-4.7c0.1-0.3,0.4-0.2,0.2-1.5c-0.2-1.4-0.4-2-0.4-2
							s1.6,0.4,2.8,0.4c1.2,0.1,5.2-1.1,5.2-1.1s-0.1,3.2-0.1,4c0,0.8,1.2,5.7,1.4,6.4c0.1,0.6,0.1,1.9,0.4,1.9
							c0.3-0.1,3.3-0.6,2.1-0.8c-1.2-0.2-1.1,0.2-1.2-0.2c-0.1-0.4-1.3-4.6-1.2-4.9c0.1-0.3,0.3-3.5,0.4-3.9
							c0.1-0.4-0.2-2.6,0.4-3.1c0.6-0.5,2,0.2,3.7,1.6c1.7,1.4,2.6,1.6,3.2,2.9c0.6,1.3,1.6,5.3,2,5.5c0.4,0.3,0.5,0.4,2.2-0.1
							c1.6-0.5-0.3-0.8-0.6-0.8c-0.3,0-1-1.3-1.2-1.6c-0.1-0.3-1.1-3.8-1.1-3.9c-0.1-0.1-0.3-1.6-1.4-2.1c-1.1-0.4-3.8-3.3-3.8-3.7
							c0-0.4,0.6-1.4,0.6-1.4s0.5-0.2,1.9-0.4c1.5-0.2,3.2-0.9,3.9-2.5c0.7-1.6,2.5-6.4,2.8-6.5c0.4-0.2,3.2-0.6,3.5-0.9
							C617,829.6,616.4,828.2,616.3,828z"/>
					</g>
				</g>
			</g>
		</g>
	</g>
	<path fill="#F3FFFD" d="M859.6,333.3c34.4,0,62.3-27.9,62.3-62.3c0-5.5-0.8-10.9-2.1-16c22.6,9.3,38.6,31.6,38.6,57.6
		c0,34.4-27.9,62.3-62.3,62.3c-28.9,0-53.1-19.7-60.2-46.4C843.2,331.6,851.2,333.3,859.6,333.3z"/>
</g>
</svg>
